<?xml version="1.0" encoding="UTF-8" standalone="no"?>
<svg xmlns:dc="http://purl.org/dc/elements/1.1/" xmlns:cc="http://creativecommons.org/ns#" xmlns:rdf="http://www.w3.org/1999/02/22-rdf-syntax-ns#" xmlns:svg="http://www.w3.org/2000/svg" xmlns="http://www.w3.org/2000/svg" xml:space="preserve" id="svg2" version="1.1" viewBox="0 0 964 196" height="26" width="130">
  <g transform="matrix(1.3333333,0,0,-1.3333333,0,793.70133)">
    <g transform="translate(73.5,468)">
      <path id="path22" style="fill:#FFF;fill-opacity:1;fill-rule:nonzero;stroke:none" d="m 0,0 c -29.625,0 -53.641,24.016 -53.641,53.641 0,29.625 24.016,53.641 53.641,53.641 29.625,0 53.641,-24.016 53.641,-53.641 C 53.641,24.016 29.625,0 0,0 m 0,126.661 c -40.328,0 -73.02,-32.693 -73.02,-73.02 0,-40.328 32.692,-73.02 73.02,-73.02 40.328,0 73.02,32.692 73.02,73.02 0,40.327 -32.692,73.02 -73.02,73.02 M 449.159,0 h -25.562 v 107.282 h 25.562 c 29.626,0 53.641,-24.016 53.641,-53.641 C 502.8,24.016 478.785,0 449.159,0 m 0,126.661 h -45.507 v -146.04 h 45.507 c 40.328,0 73.02,32.692 73.02,73.02 0,40.327 -32.692,73.02 -73.02,73.02 M 311.585,0 c -29.624,0 -53.64,24.016 -53.64,53.641 0,29.625 24.016,53.641 53.64,53.641 29.625,0 53.642,-24.016 53.642,-53.641 C 365.227,24.016 341.21,0 311.585,0 m 0,126.661 c -40.327,0 -73.019,-32.693 -73.019,-73.02 0,-40.328 32.692,-73.02 73.019,-73.02 40.329,0 73.02,32.692 73.02,73.02 0,40.327 -32.691,73.02 -73.02,73.02 m -91.08,0 V -19.379 H 200.776 V 77.443 L 155.691,35.014 110.81,77.443 V -19.379 H 91.08 v 146.04 l 64.611,-62.354 z m 339.747,-94.049 22.497,50.158 22.74,-50.158 z m 22.547,94.049 -65.844,-146.04 h 19.981 l 16.137,35.985 h 59.676 l 16.32,-35.985 h 20.127 z" />
    </g>
  </g>
</svg>
